<svg width="35" height="17" viewBox="0 0 35 17" fill="none" xmlns="http://www.w3.org/2000/svg">
<mask id="mask0_927_403" style="mask-type:luminance" maskUnits="userSpaceOnUse" x="0" y="0" width="35" height="17">
<path d="M0 0H34.0521V16.5365H0V0Z" fill="white"/>
</mask>
<g mask="url(#mask0_927_403)">
<path fill-rule="evenodd" clip-rule="evenodd" d="M12.8236 13.729C12.3549 13.9582 11.9799 13.8905 11.7142 13.4269C11.4434 12.9582 11.3601 12.3957 11.7194 11.9426C11.7194 11.9374 11.7246 11.9322 11.7246 11.9269C11.7246 11.9217 11.7194 11.9165 11.7142 11.9113C11.5215 11.6978 11.4434 11.5988 11.2142 11.4738C11.0319 11.3801 10.8184 11.2811 10.5736 11.1874C10.5684 11.1874 10.558 11.1874 10.558 11.1926C10.4174 11.5624 10.2194 11.8957 9.96944 12.1874C9.76632 12.4269 9.5684 12.3228 9.26631 12.2134C8.84965 12.0572 8.52152 11.9269 8.28715 11.828C8.27673 11.8228 8.26632 11.828 8.26111 11.8384C8.18298 11.9999 8.03715 12.1665 7.82361 12.328C7.69861 12.4269 7.56319 12.4582 7.43298 12.4113C6.5684 12.1353 5.87569 11.854 4.91736 11.4582C3.46423 10.8592 1.86527 10.1874 0.130899 9.43736C0.0683987 9.41132 0.0267324 9.3384 0.0423577 9.26548V9.26028C0.057983 9.20819 0.0996494 9.17173 0.151732 9.17173C0.167357 9.17173 0.177775 9.17173 0.193399 9.17694C1.26632 9.57278 2.40694 10.0624 4.55278 10.9478C5.68298 11.4113 6.51111 11.7447 7.50069 12.0884H7.5059C7.5059 12.0936 7.51111 12.0884 7.51631 12.0832C7.58923 11.6197 7.68819 11.1665 7.81319 10.729C7.87569 10.5051 8.02152 10.0676 8.24027 9.40611C8.46944 8.71861 8.73506 7.98944 9.03194 7.23424C9.29236 6.57799 9.57361 5.95298 9.88611 5.31757C10.0215 5.04153 10.1621 4.76028 10.3601 4.53111C10.3601 4.5259 10.3601 4.5259 10.3601 4.52069C10.3601 4.52069 10.3601 4.51548 10.3549 4.51548C9.11527 4.0259 8.45382 3.78632 7.52673 3.35403C6.72465 2.97903 5.04236 2.19778 2.47465 1.00507C2.14652 0.854026 1.6309 0.598818 1.21423 0.400902C1.09965 0.348818 0.979857 0.28111 0.860065 0.208193C0.818399 0.182152 0.792357 0.15611 0.776732 0.12486C0.776732 0.12486 0.776732 0.119652 0.771524 0.119652C0.755899 0.0727771 0.776732 0.0259025 0.818399 0.0102771C0.823607 0.0050678 0.828817 0.00506785 0.828817 0.00506785C0.860066 -0.00014015 0.901732 -0.00014018 0.948607 0.0154852C1.21423 0.0988185 1.52152 0.218611 1.87569 0.380068C3.87048 1.29153 5.72986 2.14569 7.4434 2.94257C7.91215 3.16132 8.45382 3.4009 9.00069 3.61444C9.34965 3.74465 9.65173 3.86444 9.90694 3.96861C10.1674 4.07799 10.3861 4.17694 10.558 4.26548C10.6309 4.30194 10.6674 4.35924 10.6778 4.43736C10.6882 4.50507 10.6153 4.59882 10.5788 4.64569C10.5736 4.64569 10.5736 4.6509 10.5736 4.65611C10.5736 4.66653 10.5788 4.67173 10.584 4.67173C11.0684 4.81757 11.4851 4.94778 11.8444 5.06236C11.9903 5.10924 12.1257 5.16132 12.2455 5.22382C12.433 5.32278 12.4278 5.51028 12.3965 5.69778V5.70298C12.3965 5.70819 12.3965 5.7134 12.4069 5.7134C12.6309 5.78632 13.0736 5.91653 13.7351 6.11444C13.9069 6.16653 14.0528 6.19257 14.1674 6.19778C14.3392 6.20298 14.5476 6.14049 14.7246 6.06757C14.7871 6.04673 15.0215 5.95298 15.4278 5.79153C15.8705 5.61965 16.3184 5.58319 16.7871 5.68736C16.9226 5.71861 17.0424 5.76028 17.1413 5.81236C17.1517 5.81236 17.1621 5.81757 17.1726 5.81236C17.5632 5.71861 17.8913 5.63528 18.2559 5.51548C18.6934 5.38007 19.084 5.2759 19.5059 5.38528C19.6882 5.43215 19.9069 5.50507 20.1621 5.59882C20.3861 5.68736 20.6986 5.80715 21.0996 5.96861C21.5007 6.13007 21.8757 6.32278 22.2194 6.55194C22.2246 6.55194 22.2299 6.55715 22.2351 6.55715C22.2403 6.55715 22.2403 6.55715 22.2455 6.55715C22.6309 6.46861 23.0476 6.35403 23.4955 6.20298C23.5424 6.18736 23.5788 6.17694 23.5944 6.16653C23.6049 6.16132 23.6101 6.1509 23.6101 6.14048C23.5736 5.88007 23.6726 5.69257 23.9069 5.57798C24.0267 5.52069 24.1465 5.46861 24.2611 5.43215C24.5684 5.32798 24.8757 5.23424 25.183 5.1509C25.1934 5.1509 25.1986 5.14048 25.1986 5.13007C25.1986 5.13007 25.1986 5.12486 25.1934 5.11965C25.1049 4.9634 25.2819 4.87486 25.4017 4.81757C25.6309 4.7134 25.9642 4.57798 26.4069 4.41653C26.9642 4.20819 27.5371 3.98424 28.1153 3.74986C29.5736 3.16132 31.3236 2.45819 33.3549 1.6509C33.4382 1.61965 33.5371 1.58319 33.6465 1.55194C33.8496 1.48944 33.9017 1.70819 33.7194 1.79153C33.2924 1.98944 32.8601 2.17694 32.4226 2.35403C30.4174 3.16653 29.058 3.71861 28.3444 4.00507C27.4069 4.38528 26.4642 4.74465 25.5163 5.08319C25.5111 5.08319 25.5059 5.0884 25.5059 5.09361C25.5059 5.09882 25.5059 5.09882 25.5111 5.10403C25.6569 5.27069 25.7924 5.4634 25.9121 5.67173C26.2507 6.28111 26.5267 6.89569 26.7351 7.5259C27.1257 8.67694 27.4174 9.85403 27.6101 11.0572C27.6726 11.4374 27.683 11.7551 27.6413 11.9999V12.0051C27.6413 12.0103 27.6465 12.0155 27.6569 12.0155C27.7403 11.9947 27.834 11.9634 27.9434 11.9269C29.0996 11.5103 29.9486 11.2238 30.933 10.8176C31.4069 10.6249 31.9955 10.3801 32.6934 10.0884C33.0736 9.93215 33.4121 9.80194 33.6986 9.69778C33.7976 9.66132 33.8705 9.6509 33.9174 9.66132C33.9903 9.67694 34.0215 9.72382 34.0111 9.79673C33.9903 9.89569 33.7351 10.0103 33.6569 10.0415C32.2299 10.6405 31.3809 10.9999 31.1049 11.1144C30.7611 11.2551 30.3601 11.4061 29.9069 11.5728C29.1882 11.828 28.5007 12.0676 27.8392 12.2915C27.7351 12.328 27.6413 12.3488 27.5632 12.354C27.3288 12.3644 27.1309 12.1301 27.0059 11.9686C27.0007 11.9582 26.9903 11.953 26.9799 11.9582C26.9174 11.9842 26.709 12.0728 26.3549 12.2238C25.6257 12.5415 25.308 11.9374 25.1101 11.3592C25.1101 11.3488 25.0996 11.3436 25.0944 11.3436C25.0892 11.3436 25.0892 11.3436 25.084 11.3436C24.7038 11.479 24.3444 11.5832 23.9955 11.6613C23.9799 11.6665 23.9694 11.6717 23.959 11.6874C23.7142 12.0415 23.3913 12.3019 22.9851 12.4634C22.9746 12.4686 22.9694 12.4738 22.9694 12.4842C22.9694 12.4842 22.9694 12.4894 22.9746 12.4894C22.9851 12.5155 22.9955 12.5519 23.0163 12.5884C23.183 12.9738 23.0788 13.4061 22.7871 13.6822C22.5215 13.9374 22.1361 13.9634 21.8184 13.7967C21.8184 13.7967 21.8184 13.7967 21.8132 13.7967C21.808 13.7967 21.8028 13.8019 21.8028 13.8072V13.8124C21.8861 14.0624 21.8705 14.3072 21.7507 14.5467C21.4955 15.0624 20.9746 15.2603 20.4434 15.0363C20.433 15.0311 20.4278 15.0363 20.4226 15.0415C20.3965 15.1249 20.3757 15.1874 20.3549 15.2342C20.084 15.8436 19.5111 16.0415 18.9069 15.8176C18.9069 15.8176 18.9069 15.8176 18.9069 15.8124C18.8965 15.8124 18.8861 15.8176 18.8809 15.828C18.808 16.0676 18.6674 16.2342 18.459 16.3384C18.1569 16.4894 17.8549 16.5363 17.5319 16.3957C17.3496 16.3228 17.2246 16.2603 17.1569 16.2082C17.1465 16.203 17.1309 16.203 17.1257 16.2134C16.9121 16.4009 16.5371 16.5155 16.2715 16.5259C16.0476 16.5363 15.8184 16.4738 15.5892 16.3332C15.3601 16.1926 15.2403 16.0051 15.2299 15.7707C15.2299 15.7603 15.2194 15.7499 15.2142 15.7499C15.209 15.7499 15.209 15.7499 15.209 15.7499C14.834 15.8644 14.5267 15.7915 14.2715 15.5207C14.1569 15.4009 14.084 15.2394 14.0528 15.0311C14.0528 15.0259 14.0424 15.0207 14.0371 15.0207C13.7194 15.1249 13.4434 15.0936 13.2038 14.9113C12.8236 14.6249 12.6986 14.2342 12.8392 13.7394C12.8392 13.729 12.834 13.729 12.8288 13.729C12.8236 13.729 12.8236 13.729 12.8236 13.729ZM9.57881 11.9686C9.57881 11.8592 9.58923 11.7499 9.61527 11.6457C9.78715 10.8124 9.98506 10.0624 10.1986 9.39048C10.3444 8.94778 10.4903 8.45819 10.6569 8.03632C10.8601 7.51028 11.0944 6.96861 11.3601 6.41132C11.5215 6.08319 11.7038 5.70298 11.959 5.42173C11.959 5.42173 11.959 5.42173 11.959 5.41653C11.9642 5.41132 11.9642 5.40611 11.959 5.40611C11.9538 5.40611 11.9538 5.4009 11.9538 5.4009C11.5476 5.27069 11.1309 5.13528 10.7194 4.98944C10.6205 4.95299 10.5319 4.91653 10.4538 4.87486C10.4486 4.87486 10.4486 4.87486 10.4434 4.87486C10.4382 4.87486 10.433 4.88007 10.433 4.88528C10.0215 5.69257 9.65173 6.51548 9.32881 7.36444C8.89131 8.49465 8.47986 9.66653 8.09444 10.8905C8.02673 11.0884 7.98506 11.2447 7.95381 11.3592C7.94861 11.3697 7.95382 11.3853 7.96944 11.3905L9.56319 11.9842C9.56319 11.9842 9.56319 11.9842 9.5684 11.9842C9.57361 11.9842 9.57881 11.979 9.57881 11.9686ZM26.0528 11.9947L27.3236 11.4842C27.3288 11.4842 27.3392 11.4738 27.3392 11.4634C27.3392 11.4634 27.3392 11.4634 27.3392 11.4582C27.2611 10.9061 27.1621 10.3697 27.0371 9.85403C26.8028 8.85924 26.6049 8.10403 26.3132 7.30194C26.0684 6.6509 25.7611 6.00507 25.3861 5.35924C25.3757 5.34882 25.3601 5.34361 25.3496 5.34882C24.933 5.54153 24.459 5.66653 24.0319 5.82278C24.0215 5.82799 24.0215 5.8384 24.0267 5.84882C24.3392 6.24465 24.5111 6.64049 24.7611 7.18736C25.1153 7.97382 25.3965 8.77069 25.5996 9.58319C25.7871 10.3176 25.9121 10.8592 25.9746 11.1978C26.0267 11.4842 26.0476 11.7447 26.0371 11.9842C26.0371 11.9894 26.0424 11.9947 26.0476 11.9947C26.0528 11.9947 26.0528 11.9947 26.0528 11.9947ZM12.1049 5.61965C12.0996 5.62486 12.0996 5.62486 12.0996 5.63007C12.0996 5.63528 12.1049 5.64048 12.1101 5.64569L12.1778 5.66132H12.183C12.1882 5.66132 12.1986 5.65611 12.1986 5.64569H12.1934L12.183 5.54673C12.183 5.53632 12.1778 5.53111 12.1726 5.53111C12.1674 5.53111 12.1621 5.53632 12.1569 5.54153L12.1049 5.61965ZM18.4903 7.76028L18.4851 7.76548C18.4851 7.77069 18.4851 7.77069 18.4903 7.77069C19.0371 8.21861 19.5528 8.69257 20.0371 9.19778C20.0476 9.20819 20.058 9.2134 20.0684 9.21861C20.1153 9.23423 20.1621 9.23944 20.2142 9.26548C20.7507 9.51028 21.3132 9.59882 21.8861 9.46861C21.9746 9.44778 22.0476 9.41132 22.1309 9.36965C22.1413 9.36444 22.1517 9.35924 22.1674 9.35924C22.2038 9.35924 22.2403 9.39048 22.2403 9.43215C22.2559 9.60403 21.933 9.72903 21.7976 9.75507C21.3444 9.84882 20.9017 9.80715 20.4694 9.63528C20.4642 9.63528 20.4642 9.63528 20.4642 9.63528C20.459 9.63528 20.459 9.64048 20.459 9.64048V9.64569C21.0892 10.354 21.7403 11.0519 22.4174 11.7394C22.5371 11.8592 22.6726 12.0259 22.8288 12.2394C22.834 12.2447 22.8444 12.2499 22.8549 12.2447C23.1205 12.078 23.334 11.9217 23.5007 11.7759C23.7299 11.5728 23.8496 11.3124 23.8653 10.9999C23.8705 10.953 23.8757 10.9217 23.8809 10.9113C23.9226 10.8332 24.0111 10.8384 24.058 10.9061C24.1257 11.0207 24.1153 11.1874 24.0996 11.3332C24.0996 11.3384 24.1049 11.3488 24.1153 11.3488C24.4486 11.2394 24.7976 11.1249 25.1517 11.0051C25.2924 10.953 25.433 10.9165 25.5684 10.8801C25.5736 10.8801 25.5788 10.8749 25.5788 10.8644C25.5788 10.8644 25.5788 10.8644 25.5788 10.8592C25.4642 10.3644 25.3444 9.88007 25.2246 9.41653C25.0684 8.81757 24.8653 8.21861 24.6153 7.61965C24.4851 7.30715 24.3496 6.99465 24.2142 6.68215C24.1569 6.54673 24.0892 6.41653 24.0111 6.28111C24.0059 6.2759 23.9955 6.27069 23.9903 6.2759C23.6309 6.44778 23.2611 6.5884 22.8705 6.69257C22.7246 6.73424 22.6049 6.75507 22.5059 6.76028C22.4903 6.76028 22.4851 6.77069 22.4851 6.78111C22.4851 6.78632 22.4851 6.79153 22.4851 6.79153C22.5996 6.9634 22.4434 7.05715 22.308 6.9634C21.9746 6.72382 21.6101 6.5259 21.2194 6.35924C20.558 6.0884 20.0163 5.86965 19.5892 5.71861C19.2142 5.58319 18.9017 5.63528 18.5371 5.75507C17.9746 5.93736 17.3913 6.09361 16.7871 6.2134C16.5736 6.26028 16.4069 6.37486 16.2924 6.56236C16.1309 6.83319 15.9486 7.0884 15.7559 7.32278C15.7507 7.32798 15.7507 7.32799 15.7507 7.33319C15.7507 7.3384 15.7559 7.34882 15.7611 7.34882C16.0424 7.46861 16.0007 7.73944 15.8392 7.93736C15.7455 8.05194 15.6413 8.16653 15.5215 8.28111C15.3392 8.45298 15.1361 8.48423 14.9017 8.38007C14.9017 8.37486 14.9017 8.37486 14.8965 8.37486C14.8913 8.37486 14.8809 8.38528 14.8809 8.39048C14.8809 8.39569 14.8809 8.39569 14.8809 8.39569C14.9278 8.59361 15.2194 8.65611 15.3861 8.66132C16.1101 8.68215 16.709 8.30715 17.1934 7.78111C17.3028 7.66653 17.3236 7.56757 17.3288 7.40611C17.334 7.30715 17.3653 7.24465 17.4642 7.24986C17.4746 7.24986 17.4851 7.25507 17.4955 7.26028C17.5944 7.33319 17.5892 7.47382 17.5736 7.59882C17.5736 7.60924 17.584 7.61965 17.5892 7.61965C17.5944 7.61965 17.5944 7.61965 17.5944 7.61965C17.8132 7.59882 18.0111 7.57798 18.183 7.54673C18.433 7.49986 18.6049 7.47382 18.7871 7.33319C18.8392 7.29673 18.9382 7.33319 18.933 7.41653C18.9278 7.4634 18.8965 7.51548 18.8392 7.57278C18.8392 7.57798 18.8392 7.57799 18.8392 7.58319C18.8392 7.5884 18.8444 7.59361 18.8496 7.59361C19.084 7.59361 19.2924 7.53111 19.4694 7.40611C19.5059 7.38528 19.5424 7.38528 19.5788 7.41653C19.6049 7.44257 19.6153 7.47903 19.6049 7.51028C19.5267 7.72903 19.2246 7.8384 19.0163 7.85403C18.834 7.86444 18.6674 7.83319 18.5059 7.75507H18.5007L18.4903 7.76028ZM13.8392 12.8332C13.8392 12.8384 13.8392 12.8384 13.8392 12.8384C13.8392 12.8384 13.8392 12.8436 13.8444 12.8436C14.2663 12.5103 14.8757 12.4009 15.2611 12.8644C15.4278 13.0624 15.4851 13.3228 15.3913 13.5728C15.3913 13.578 15.3913 13.578 15.3913 13.578C15.3913 13.5884 15.3965 13.5988 15.4069 13.5988C15.4069 13.5988 15.4069 13.5988 15.4121 13.5988C15.6257 13.5572 15.8028 13.5988 15.9538 13.7238C16.1778 13.9113 16.2663 14.1509 16.2142 14.4478C16.2142 14.4582 16.2194 14.4634 16.2299 14.4634C16.4746 14.4478 16.6674 14.5363 16.8028 14.7186C17.0163 15.0051 17.0007 15.3436 16.8809 15.6717C16.8757 15.6822 16.8809 15.6926 16.8913 15.703C17.0892 15.8436 17.3132 15.9686 17.558 16.0832C17.6934 16.1405 17.808 16.1717 17.9121 16.1665C18.1153 16.1613 18.2924 16.0988 18.4538 15.9738C18.5111 15.9322 18.5684 15.8384 18.6205 15.703C18.6257 15.6926 18.6205 15.6769 18.6101 15.6717C18.1517 15.354 17.7715 15.0155 17.3601 14.6457C17.209 14.5051 17.0892 14.4061 17.0059 14.3384C16.9538 14.2967 16.8913 14.2342 16.9278 14.1665C17.0163 14.0103 17.2715 14.2238 17.3757 14.3072C17.8444 14.6769 18.2403 15.078 18.7299 15.4009C18.9017 15.5155 19.0736 15.578 19.2559 15.5936C19.7611 15.6405 20.0163 15.3592 20.1726 14.9009C20.1778 14.8905 20.1726 14.8801 20.1621 14.8749C19.933 14.6978 19.7246 14.4947 19.5111 14.2967C19.0632 13.8697 18.6882 13.4947 18.3861 13.1717C18.3236 13.1092 18.2194 12.9686 18.3601 12.9113C18.4121 12.8853 18.4746 12.9426 18.5215 12.979C18.6465 13.0832 18.7507 13.1769 18.8288 13.2499C19.183 13.578 19.5267 13.9061 19.8705 14.2394C20.0944 14.4478 20.2507 14.5884 20.3496 14.6561C20.7819 14.9478 21.3288 14.8488 21.5267 14.3228C21.6361 14.0311 21.4955 13.7759 21.3653 13.5155C21.3496 13.4842 21.3288 13.453 21.2976 13.4269C21.0788 13.2342 20.8392 13.0363 20.6517 12.828C20.4799 12.6405 20.2663 12.4113 20.0892 12.229C19.9121 12.0519 19.7924 11.9217 19.7299 11.8488C19.6517 11.7551 19.558 11.6197 19.4486 11.4374C19.4226 11.3957 19.4069 11.354 19.3965 11.3124C19.3965 11.3072 19.3965 11.3019 19.3965 11.2967C19.3965 11.2603 19.4174 11.229 19.4538 11.2134C19.5111 11.1874 19.5944 11.2863 19.6309 11.3332C19.7924 11.5363 19.9382 11.7134 20.1465 11.9061C20.4799 12.2238 20.834 12.6457 21.2194 12.979C21.3757 13.1144 21.4903 13.2238 21.6309 13.3644C21.7455 13.4738 21.8184 13.5051 21.9746 13.5572C22.209 13.6405 22.4121 13.6092 22.5684 13.4686C22.6882 13.3644 22.7611 13.2394 22.7924 13.0832C22.8601 12.7499 22.5684 12.354 22.3549 12.1301C22.1465 11.9113 21.9382 11.6926 21.7246 11.4738C21.0684 10.8176 20.4694 10.1144 19.8392 9.44257C19.5163 9.10403 19.0059 8.61965 18.3184 7.98944C18.2663 7.94257 18.2194 7.89569 18.1778 7.84361C18.1674 7.83319 18.1569 7.82798 18.1465 7.82798C18.1413 7.82798 18.1413 7.83319 18.1361 7.83319C17.9278 7.87486 17.709 7.89569 17.4851 7.89569C17.4746 7.89569 17.4642 7.9009 17.459 7.91132C17.2351 8.19778 16.9694 8.43736 16.6517 8.63007C16.1621 8.92694 15.1205 9.21861 14.6934 8.64048C14.5215 8.41132 14.6049 8.20819 14.7767 7.99986C14.9538 7.77069 15.0996 7.61444 15.3184 7.39569C15.558 7.1509 15.7455 6.89569 15.9226 6.60403C16.1049 6.31236 16.2663 6.09361 16.5424 5.9634L16.5476 5.95819C16.5476 5.95298 16.5424 5.94778 16.5424 5.94778C16.1986 5.90611 15.8653 5.94778 15.5371 6.07798C15.1049 6.24465 14.8809 6.33319 14.8705 6.3384C14.6569 6.42694 14.3757 6.50507 14.1621 6.47903C13.9642 6.4634 13.709 6.40611 13.3965 6.31236C13.0736 6.21861 12.709 6.10403 12.3028 5.96861C12.1934 5.93215 12.0944 5.89048 12.0007 5.85403C11.9903 5.84882 11.9799 5.85403 11.9694 5.86444C11.7194 6.31757 11.5163 6.79153 11.2924 7.30194C11.1621 7.60924 11.0684 7.82798 11.0215 7.95819C10.6934 8.86444 10.4017 9.7759 10.1465 10.703V10.7082C10.1465 10.7238 10.1569 10.7342 10.1674 10.7342C10.5996 10.8488 11.0111 11.0155 11.3965 11.2342C11.5163 11.3072 11.6778 11.4165 11.7611 11.5155C11.9538 11.7342 12.0892 11.8905 12.1778 11.9894C12.1882 11.9947 12.1986 11.9947 12.2038 11.9894C12.3705 11.8697 12.558 11.7759 12.7559 11.7134C13.1465 11.5936 13.4746 11.6822 13.7351 11.9842C13.9642 12.2394 13.9955 12.5259 13.8392 12.8332ZM23.8705 6.09361C23.8861 6.0884 23.8965 6.08319 23.9017 6.07798C23.9017 6.07278 23.9017 6.06757 23.9017 6.06236C23.8861 6.01549 23.8705 5.99465 23.8549 5.99986C23.8392 5.99986 23.834 6.0259 23.834 6.07278C23.834 6.07798 23.8392 6.08319 23.8392 6.0884C23.8496 6.09361 23.8601 6.09882 23.8705 6.09361ZM14.9799 8.23424L15.1778 8.25507C15.2246 8.26028 15.2767 8.24986 15.3132 8.21861C15.4746 8.08319 15.7038 7.86965 15.7871 7.66653C15.8028 7.62486 15.7924 7.58319 15.7611 7.55715L15.6517 7.47382C15.6413 7.4634 15.6205 7.4634 15.6101 7.47382L14.959 8.17694C14.9538 8.18215 14.9538 8.19257 14.9538 8.19778C14.9538 8.21861 14.9642 8.22903 14.9799 8.23424ZM10.0163 11.2759C10.0632 11.229 10.1257 11.1509 10.1934 11.0467C10.1986 11.0415 10.1986 11.0363 10.1986 11.0363C10.1986 11.0259 10.1934 11.0207 10.1882 11.0155L10.0996 10.9842C10.0944 10.9842 10.0944 10.9842 10.0892 10.9842C10.084 10.9842 10.0736 10.9894 10.0736 10.9999L10.0059 11.2655C10.0059 11.2707 10.0059 11.2707 10.0059 11.2707C10.0059 11.2707 10.0059 11.2759 10.0111 11.2759H10.0163ZM9.92777 11.6509L10.3601 11.1301C10.3601 11.1249 10.3601 11.1249 10.3601 11.1197C10.3601 11.1144 10.3601 11.1144 10.3549 11.1092L10.3496 11.104C10.3444 11.0988 10.3444 11.0988 10.3392 11.0988L10.334 11.104C10.2246 11.2342 10.1517 11.328 10.0528 11.4217C10.0007 11.4738 9.95902 11.5155 9.9434 11.5519C9.91736 11.5988 9.90694 11.6301 9.90694 11.6457C9.90694 11.6509 9.91215 11.6561 9.91736 11.6561C9.92256 11.6561 9.92256 11.6561 9.92777 11.6509ZM25.6517 11.1717C25.6413 11.1613 25.5788 11.229 25.5215 11.3176C25.459 11.4061 25.4226 11.4894 25.4382 11.4999C25.4538 11.5103 25.5111 11.4426 25.5736 11.354C25.6309 11.2603 25.6674 11.1822 25.6517 11.1717ZM25.3496 11.3124C25.3601 11.3176 25.3653 11.3228 25.3705 11.3228C25.3757 11.3228 25.3861 11.3228 25.3913 11.3124C25.4226 11.2603 25.4382 11.229 25.4278 11.2238C25.4174 11.2134 25.3913 11.2342 25.3444 11.2759C25.3392 11.2811 25.334 11.2915 25.3392 11.2967C25.3444 11.3019 25.3444 11.3072 25.3496 11.3124ZM25.6934 11.4478C25.6778 11.4374 25.6361 11.479 25.5996 11.5467C25.5632 11.6092 25.5476 11.6665 25.5632 11.6769C25.5788 11.6874 25.6205 11.6405 25.6569 11.578C25.6934 11.5155 25.709 11.453 25.6934 11.4478ZM7.80798 11.979C7.80798 11.9894 7.81319 11.9947 7.8184 11.9947C7.82361 11.9947 7.82881 11.9947 7.82881 11.9894L8.05277 11.7499C8.05277 11.7499 8.05277 11.7499 8.05277 11.7447C8.05798 11.7394 8.05798 11.7238 8.04756 11.7186L7.91215 11.6405L7.90694 11.6353C7.89652 11.6353 7.89132 11.6457 7.88611 11.6509L7.80798 11.979ZM25.7403 11.8749V11.7394C25.7403 11.729 25.7351 11.7238 25.7299 11.7238C25.7246 11.7238 25.7194 11.729 25.7194 11.729L25.6621 11.8019C25.6569 11.8072 25.6569 11.8228 25.6621 11.8332C25.683 11.8592 25.6986 11.8801 25.7194 11.8905H25.7246C25.7351 11.8905 25.7403 11.8801 25.7403 11.8749ZM27.3809 11.7551L27.2299 11.8436C27.2246 11.8488 27.2246 11.854 27.2299 11.8592C27.2767 11.9113 27.3236 11.953 27.3809 11.979C27.3861 11.979 27.3861 11.979 27.3913 11.979C27.3965 11.979 27.4017 11.9738 27.4017 11.9686V11.7655C27.4017 11.7551 27.3965 11.7499 27.3913 11.7499C27.3861 11.7499 27.3861 11.7499 27.3809 11.7551ZM9.91215 11.7915C9.90694 11.7863 9.89132 11.7967 9.8809 11.8124C9.87048 11.8332 9.87048 11.8488 9.87569 11.854C9.8809 11.8592 9.89652 11.8488 9.90694 11.828C9.91736 11.8124 9.91736 11.7967 9.91215 11.7915ZM13.3028 12.979C13.2142 13.0207 13.1674 13.0415 13.1621 13.0467C13.0163 13.1197 12.8705 13.104 12.7299 12.9999C12.5163 12.8384 12.3705 12.5363 12.5892 12.3072C12.7611 12.1301 12.9121 11.9738 13.1413 12.1144C13.3132 12.2238 13.5684 12.4374 13.5788 12.6405C13.5788 12.6509 13.584 12.6561 13.5892 12.6561C13.5944 12.6561 13.5996 12.6509 13.5996 12.6457C13.7194 12.3853 13.5424 12.1457 13.3184 12.0259C13.1778 11.953 13.0319 11.9426 12.8757 11.9894C12.5736 12.0884 12.2976 12.2447 12.0371 12.4582C12.0215 12.4738 12.0007 12.479 11.9799 12.479C11.9486 12.479 11.9226 12.4634 11.9069 12.4374L11.9017 12.4322C11.8653 12.3749 11.8809 12.3019 11.9278 12.2603L11.9799 12.2134C11.9799 12.2082 11.9851 12.203 11.9851 12.1978C11.9851 12.1926 11.9851 12.1874 11.9799 12.1822L11.8965 12.104H11.8913C11.8861 12.104 11.8809 12.104 11.8809 12.1092C11.7611 12.3697 11.7246 12.6509 11.8236 12.9426C11.9226 13.2186 12.1101 13.6405 12.4694 13.5311C12.8132 13.4217 13.0476 13.229 13.308 12.9842C13.308 12.9842 13.308 12.9842 13.308 12.979H13.3028ZM12.9069 12.1769C12.8184 12.354 12.5267 12.4165 12.6621 12.6665C12.7455 12.828 12.9174 12.9947 13.0996 12.9009C13.2246 12.8384 13.3288 12.7707 13.4069 12.6926C13.4174 12.6769 13.4278 12.6561 13.4278 12.6405C13.4278 12.6249 13.4226 12.6092 13.4174 12.5988C13.3028 12.4113 13.1205 12.2915 12.933 12.1665C12.9278 12.1665 12.9278 12.1665 12.9226 12.1665C12.9174 12.1665 12.9121 12.1717 12.9069 12.1769ZM14.9799 13.6769C14.9069 13.7811 14.8184 13.8644 14.7194 13.9269C14.4799 14.078 14.1778 13.8853 14.0632 13.6665C14.0007 13.5467 14.0007 13.4426 14.0528 13.3384C14.1257 13.2082 14.3653 12.9217 14.5424 12.9374C14.7976 12.9582 15.0111 13.2863 15.0788 13.5155C15.0788 13.5207 15.084 13.5207 15.084 13.5207C15.0892 13.5207 15.0944 13.5207 15.0944 13.5155C15.1621 13.3801 15.1569 13.2499 15.0788 13.1249C14.959 12.9374 14.7871 12.8488 14.5632 12.8592C14.1153 12.8801 13.709 13.2915 13.3809 13.5936C13.3392 13.6353 13.2507 13.6353 13.2351 13.5624C13.2299 13.5572 13.2351 13.5363 13.2403 13.5051C13.2403 13.4947 13.2351 13.4894 13.2299 13.4894C13.2299 13.4894 13.2299 13.4894 13.2246 13.4894C13.1569 13.5103 13.1205 13.5467 13.1205 13.604C13.1257 13.7186 13.0996 13.8072 13.0736 13.979C13.0528 14.1509 13.0788 14.3019 13.1621 14.4322C13.2819 14.6197 13.4799 14.7759 13.7038 14.7707C13.9174 14.7707 14.0476 14.7134 14.2194 14.5519C14.5059 14.2811 14.7611 13.9947 14.9955 13.6874V13.6822C14.9955 13.6769 14.9955 13.6769 14.9955 13.6769H14.9903C14.9903 13.6717 14.9903 13.6717 14.9851 13.6717C14.9851 13.6717 14.9799 13.6717 14.9799 13.6769ZM14.5371 13.0884C14.5267 13.0832 14.5215 13.0832 14.5111 13.0832C14.5007 13.0832 14.4955 13.0832 14.4851 13.0884C14.3549 13.1874 14.0892 13.3801 14.183 13.5624C14.2507 13.6926 14.3861 13.8176 14.5319 13.8124C14.6778 13.8072 14.8184 13.6405 14.8965 13.5207C14.9069 13.5051 14.9069 13.4894 14.8965 13.479C14.808 13.3176 14.6934 13.1717 14.5371 13.0884ZM14.3028 14.9061C14.3288 15.1978 14.5632 15.4738 14.8496 15.4894C15.0996 15.4999 15.2976 15.4009 15.4538 15.1874C15.6101 14.9686 15.7351 14.7759 15.8288 14.604C15.9382 14.4113 15.9799 14.2447 15.8653 14.0572C15.7403 13.854 15.5267 13.8228 15.3132 13.9009C15.2559 13.9217 15.1882 13.979 15.1101 14.0728C14.8861 14.3332 14.5944 14.6509 14.3132 14.8853C14.308 14.8905 14.3028 14.8957 14.3028 14.9061ZM16.8705 16.0259L16.7611 15.9322C16.7559 15.9269 16.7507 15.9217 16.7403 15.9217C16.7246 15.9217 16.7142 15.9322 16.709 15.9426C16.6621 16.0311 16.4955 16.1613 16.4278 16.0155C16.4069 15.9738 16.4121 15.9322 16.433 15.8905C16.6101 15.5988 16.7924 15.229 16.5736 14.9009C16.4746 14.7499 16.334 14.703 16.1517 14.7603C16.1205 14.7707 16.0944 14.7863 16.0788 14.8124V14.8176C16.0788 14.828 16.084 14.8332 16.0892 14.8332C16.2299 14.8488 16.3549 14.9165 16.4642 15.0259C16.5528 15.1092 16.558 15.2082 16.4851 15.3124C16.3913 15.453 16.2819 15.5363 16.1153 15.5103C15.9642 15.4894 15.8653 15.4009 15.8184 15.2551C15.8184 15.2447 15.8132 15.2447 15.808 15.2447C15.8028 15.2447 15.8028 15.2447 15.7976 15.2499C15.6986 15.4009 15.5944 15.5207 15.4851 15.6092C15.4799 15.6144 15.4746 15.6249 15.4746 15.6405C15.4799 15.8592 15.5788 15.9894 15.7767 16.0884C15.9538 16.1769 16.0892 16.2342 16.2663 16.2134C16.4642 16.1926 16.6674 16.1405 16.8653 16.0519C16.8653 16.0519 16.8705 16.0519 16.8705 16.0467C16.8757 16.0415 16.8757 16.0363 16.8757 16.0259C16.8705 16.0259 16.8705 16.0259 16.8705 16.0259ZM16.3392 15.1457L16.1153 14.9842C16.1049 14.979 16.0944 14.9738 16.084 14.9738C16.0684 14.9738 16.0528 14.9842 16.0424 14.9947L16.0371 15.0051C15.959 15.1197 15.9642 15.2603 16.0476 15.3228L16.0528 15.328C16.1361 15.3853 16.2715 15.3384 16.3496 15.2238L16.3549 15.2186C16.3601 15.2082 16.3653 15.1978 16.3653 15.1874C16.3653 15.1717 16.3549 15.1561 16.3392 15.1457Z" fill="black"/>
</g>
<path fill-rule="evenodd" clip-rule="evenodd" d="M13.9788 2.53603C14.1246 2.84332 14.2496 3.11937 14.3434 3.36937C14.3851 3.46832 14.4423 3.62457 14.3382 3.7027C14.208 3.80166 14.0934 3.61416 14.0465 3.49957C13.9111 3.17666 13.7861 2.90582 13.6819 2.68707C13.5778 2.46832 13.4423 2.20791 13.2705 1.90062C13.2132 1.79124 13.1298 1.58812 13.2913 1.54124C13.4111 1.50478 13.4996 1.6402 13.5517 1.73395C13.6871 1.96312 13.833 2.23395 13.9788 2.53603Z" fill="black"/>
<path fill-rule="evenodd" clip-rule="evenodd" d="M23.5152 3.05195C23.4058 3.24987 23.286 3.47904 23.1506 3.72904C23.1246 3.77591 23.0933 3.82279 23.0569 3.88008C22.9423 4.03633 22.7444 3.91654 22.8069 3.73945C22.9006 3.44779 23.0569 3.19258 23.2235 2.88529C23.3954 2.57279 23.5256 2.30716 23.7131 2.06758C23.8329 1.92174 24.0308 2.03112 23.9631 2.21341C23.9371 2.27591 23.9162 2.32799 23.8902 2.37487C23.7496 2.62487 23.6298 2.84883 23.5152 3.05195Z" fill="black"/>
<path fill-rule="evenodd" clip-rule="evenodd" d="M13.0092 3.45223C13.2331 3.71265 13.431 3.91578 13.5769 4.17098C13.6706 4.32723 13.5092 4.47827 13.3685 4.35327C13.3216 4.31161 13.2852 4.26994 13.2487 4.23348C13.0716 4.02515 12.9154 3.83765 12.7696 3.67098C12.6237 3.50432 12.4623 3.32203 12.28 3.1189C12.2487 3.07723 12.2123 3.03557 12.181 2.97827C12.0769 2.82203 12.2435 2.6814 12.3842 2.79077C12.6081 2.97307 12.7852 3.19703 13.0092 3.45223Z" fill="black"/>
<path fill-rule="evenodd" clip-rule="evenodd" d="M21.9255 3.01001C22.0193 3.01522 22.0661 3.09855 22.0609 3.26001C22.0609 3.40064 22.0557 3.54126 22.0505 3.67668C22.0401 3.8173 22.0297 3.95272 22.0193 4.09334C22.0036 4.2548 21.9464 4.33293 21.8526 4.32772C21.7589 4.32251 21.712 4.23918 21.7172 4.07772C21.7172 3.93709 21.7224 3.79647 21.7276 3.66105C21.738 3.52043 21.7484 3.38501 21.7589 3.24438C21.7745 3.08293 21.8318 3.0048 21.9255 3.01001Z" fill="black"/>
<path fill-rule="evenodd" clip-rule="evenodd" d="M24.0939 4.32351C24.021 4.37038 23.8803 4.46934 23.672 4.6308C23.6199 4.66726 23.5262 4.68288 23.4741 4.64122C23.2553 4.45372 23.7866 4.12559 23.9168 4.03705C24.0418 3.95372 24.5522 3.58913 24.6303 3.87559C24.646 3.9433 24.5939 4.02143 24.5366 4.05268C24.3126 4.18809 24.1616 4.27664 24.0939 4.32351Z" fill="black"/>
<path fill-rule="evenodd" clip-rule="evenodd" d="M4.68103 9.43676L5.26436 9.67114C5.30082 9.68676 5.31645 9.72843 5.30603 9.76489H5.30082C5.29041 9.80135 5.24874 9.82218 5.21228 9.80655L4.62895 9.57218C4.59249 9.56176 4.57165 9.52009 4.58728 9.48364V9.47843C4.60291 9.44197 4.64457 9.42635 4.68103 9.43676Z" fill="black"/>
<path fill-rule="evenodd" clip-rule="evenodd" d="M28.8476 9.61542C29.134 9.77688 29.2382 10.1519 29.0768 10.4488C28.9153 10.7508 28.5507 10.8602 28.2643 10.6988C27.9778 10.5373 27.8788 10.1623 28.0403 9.86542C28.2018 9.56334 28.5663 9.45396 28.8528 9.61542H28.8476ZM28.358 9.83938C28.3476 9.83938 28.3372 9.84459 28.332 9.85501C28.2538 9.98521 28.2174 10.1831 28.3059 10.3133C28.3476 10.381 28.3997 10.4175 28.4518 10.4331C28.8788 10.5581 28.9934 9.87584 28.5872 9.82896C28.5143 9.81855 28.4309 9.86021 28.358 9.83938Z" fill="black"/>
<path fill-rule="evenodd" clip-rule="evenodd" d="M5.15003 9.92708C5.16045 9.92708 5.17087 9.94271 5.17087 9.95312C5.17087 9.95833 5.17087 9.95833 5.16566 9.96354L5.15524 9.98958C5.14482 10.0365 5.05108 10.0417 4.95733 10.0104L4.68128 9.91146C4.58753 9.88021 4.51982 9.8125 4.53545 9.77083L4.54587 9.73958C4.54587 9.72917 4.56149 9.71875 4.57191 9.71875C4.57712 9.71875 4.57712 9.71875 4.58233 9.72396L5.15003 9.92708Z" fill="black"/>
<path fill-rule="evenodd" clip-rule="evenodd" d="M10.4006 10.4845L11.687 11.0887C11.7235 11.1043 11.7391 11.146 11.7183 11.1825V11.1877C11.7026 11.2241 11.661 11.2398 11.6245 11.2189L10.3433 10.62C10.3068 10.6043 10.2912 10.5575 10.3068 10.521C10.3224 10.4845 10.3641 10.4689 10.4006 10.4845Z" fill="black"/>
<path fill-rule="evenodd" clip-rule="evenodd" d="M24.9629 10.8957C24.8066 10.9425 24.6139 11.0102 24.4577 11.0102C24.4264 11.0102 24.4004 10.9842 24.4004 10.9582C24.4004 10.9425 24.4056 10.9321 24.416 10.9217C24.4368 10.8957 24.4629 10.8748 24.5046 10.8644C24.666 10.8227 24.8014 10.7811 24.916 10.7446C25.0358 10.7134 25.1712 10.6665 25.3275 10.6144C25.3639 10.604 25.4004 10.5988 25.4368 10.6092C25.4577 10.6196 25.4681 10.6404 25.4681 10.6613C25.4681 10.6821 25.4629 10.6977 25.4473 10.7082C25.3118 10.7967 25.1139 10.8488 24.9629 10.8957Z" fill="black"/>
<path fill-rule="evenodd" clip-rule="evenodd" d="M9.05101 13.7961C9.11872 13.9002 8.98851 13.9888 8.89997 14.0305C8.65518 14.1555 8.19684 14.3898 7.52497 14.7388C7.25934 14.8742 7.09268 14.9627 7.03018 15.0096C6.91559 15.0877 6.70205 15.0721 6.73851 14.8794C6.73851 14.8638 6.74372 14.8534 6.75414 14.843C6.7958 14.7909 6.85309 14.744 6.91039 14.7075C7.38434 14.4159 7.72809 14.2596 8.32705 13.9627C8.50934 13.8742 8.64997 13.8117 8.75414 13.7752C8.84268 13.7492 8.99372 13.7023 9.05101 13.7961Z" fill="black"/>
<mask id="mask1_927_403" style="mask-type:luminance" maskUnits="userSpaceOnUse" x="25" y="12" width="5" height="5">
<path d="M25.1035 12.6621H29.1035V16.5371H25.1035V12.6621Z" fill="white"/>
</mask>
<g mask="url(#mask1_927_403)">
<path fill-rule="evenodd" clip-rule="evenodd" d="M28.0976 15.3191C28.0143 15.3816 27.8372 15.2983 27.7538 15.2514C27.1497 14.8868 26.5663 14.5691 26.0091 14.2983C25.9257 14.2618 25.6341 14.1004 25.6236 13.9806C25.6132 13.84 25.7434 13.7879 25.8476 13.8452C25.9622 13.9077 26.1861 14.0222 26.5091 14.1837C27.0507 14.4545 27.5611 14.741 27.9986 15.017C28.0924 15.0795 28.2278 15.2202 28.0976 15.3191Z" fill="black"/>
</g>
<path fill-rule="evenodd" clip-rule="evenodd" d="M15.8853 14.3493C15.9009 14.3753 15.9009 14.4118 15.8905 14.4378C15.8176 14.5732 15.6614 14.7868 15.5103 14.818C15.3436 14.844 15.1926 14.7815 15.0884 14.6513C14.9322 14.4482 15.0416 14.2555 15.177 14.094C15.3957 13.8388 15.7603 14.1513 15.8853 14.3493ZM15.7082 14.4065L15.3749 14.1461C15.3697 14.1357 15.3541 14.1357 15.3436 14.1357C15.3228 14.1357 15.3072 14.1409 15.2968 14.1565C15.2551 14.2138 15.2134 14.2763 15.1666 14.3493C15.1353 14.4118 15.1405 14.4482 15.177 14.5055C15.2499 14.6201 15.4061 14.7138 15.5311 14.6305C15.5936 14.5888 15.6561 14.5263 15.7134 14.443C15.7186 14.4326 15.7186 14.417 15.7082 14.4065Z" fill="black"/>
<path fill-rule="evenodd" clip-rule="evenodd" d="M13.4467 14.3915C13.5196 14.4644 13.5925 14.5008 13.6915 14.5633C13.7175 14.579 13.7227 14.6102 13.7071 14.6362C13.6498 14.73 13.405 14.5529 13.3477 14.4956C13.2852 14.4331 13.1133 14.1831 13.2071 14.1206C13.2331 14.105 13.2644 14.1154 13.28 14.1415C13.3425 14.2404 13.3738 14.3185 13.4467 14.3915Z" fill="black"/>
<path fill-rule="evenodd" clip-rule="evenodd" d="M21.1456 14.5617C21.0935 14.6086 20.8278 14.7856 20.7758 14.6971V14.6919C20.7601 14.6659 20.7758 14.6294 20.8018 14.6138C20.8018 14.6138 20.8018 14.6138 20.807 14.6138C20.9112 14.5669 20.9945 14.52 21.0622 14.4627C21.1351 14.4054 21.1976 14.3273 21.2653 14.2336C21.2653 14.2284 21.2653 14.2283 21.2653 14.2283C21.2862 14.2023 21.3226 14.1971 21.3435 14.2179C21.3487 14.2179 21.3487 14.2179 21.3487 14.2179C21.4268 14.2908 21.1976 14.52 21.1456 14.5617Z" fill="black"/>
<mask id="mask2_927_403" style="mask-type:luminance" maskUnits="userSpaceOnUse" x="7" y="13" width="4" height="4">
<path d="M7.76953 13.9941H10.4362V16.5358H7.76953V13.9941Z" fill="white"/>
</mask>
<g mask="url(#mask2_927_403)">
<path fill-rule="evenodd" clip-rule="evenodd" d="M8.97315 15.2551C8.92106 15.2968 8.79085 15.4166 8.57731 15.6145C8.5044 15.677 8.37419 15.7082 8.3221 15.6093C8.2544 15.4895 8.40023 15.3384 8.48356 15.2603C8.59294 15.1613 8.68669 15.0728 8.77002 15.0051C8.85335 14.9322 8.95231 14.8541 9.0669 14.7603C9.15544 14.6874 9.32731 14.5676 9.43148 14.6613C9.51481 14.7291 9.46273 14.8541 9.38981 14.9113C9.16585 15.0988 9.02523 15.2082 8.97315 15.2551Z" fill="black"/>
</g>
<mask id="mask3_927_403" style="mask-type:luminance" maskUnits="userSpaceOnUse" x="25" y="13" width="3" height="4">
<path d="M25.1035 13.9941H27.7702V16.5358H25.1035V13.9941Z" fill="white"/>
</mask>
<g mask="url(#mask3_927_403)">
<path fill-rule="evenodd" clip-rule="evenodd" d="M26.026 15.01C26.1354 15.0986 26.2448 15.1871 26.349 15.2809C26.474 15.3902 26.5052 15.484 26.4479 15.5621C26.3854 15.6402 26.2917 15.6298 26.1562 15.5309C26.0417 15.4475 25.9323 15.3642 25.8229 15.2757C25.7135 15.1871 25.6094 15.0986 25.5 15.0048C25.375 14.8954 25.3438 14.8017 25.4062 14.7236C25.4635 14.6455 25.5625 14.6559 25.6927 14.7548C25.8073 14.8382 25.9167 14.9215 26.026 15.01Z" fill="black"/>
</g>
<mask id="mask4_927_403" style="mask-type:luminance" maskUnits="userSpaceOnUse" x="18" y="13" width="4" height="4">
<path d="M18.4375 13.9941H21.1042V16.5358H18.4375V13.9941Z" fill="white"/>
</mask>
<g mask="url(#mask4_927_403)">
<path fill-rule="evenodd" clip-rule="evenodd" d="M19.7298 15.3268C19.61 15.431 19.485 15.4987 19.3548 15.5299C19.3288 15.5352 19.3079 15.5299 19.2975 15.5091C19.2923 15.4987 19.2871 15.4883 19.2871 15.4779C19.2871 15.4518 19.2975 15.431 19.3236 15.4206C19.4538 15.3633 19.5632 15.3008 19.6413 15.2279C19.7246 15.1549 19.8027 15.0508 19.8704 14.9258C19.8809 14.9049 19.9017 14.8945 19.9225 14.8945C19.9382 14.8945 19.9486 14.8997 19.959 14.9102C19.9798 14.9258 19.9798 14.9466 19.9746 14.9727C19.9277 15.1029 19.8496 15.2174 19.7298 15.3268Z" fill="black"/>
</g>
<mask id="mask5_927_403" style="mask-type:luminance" maskUnits="userSpaceOnUse" x="14" y="13" width="2" height="4">
<path d="M14.4375 13.9941H15.7708V16.5358H14.4375V13.9941Z" fill="white"/>
</mask>
<g mask="url(#mask5_927_403)">
<path fill-rule="evenodd" clip-rule="evenodd" d="M14.709 15.1816C14.7663 15.2285 14.834 15.2441 14.9017 15.2754C14.9225 15.2806 14.9329 15.3014 14.9329 15.3223C14.9329 15.3431 14.9173 15.3639 14.8965 15.3691C14.8184 15.39 14.6986 15.3223 14.6413 15.2806C14.5788 15.2389 14.485 15.1452 14.4746 15.0618V15.0566C14.4746 15.0306 14.4954 15.0098 14.5215 15.0098C14.5371 15.0098 14.5475 15.015 14.5579 15.0254C14.61 15.0827 14.6517 15.14 14.709 15.1816Z" fill="black"/>
</g>
<mask id="mask6_927_403" style="mask-type:luminance" maskUnits="userSpaceOnUse" x="17" y="15" width="2" height="2">
<path d="M17.1035 15.3281H18.4368V16.5365H17.1035V15.3281Z" fill="white"/>
</mask>
<g mask="url(#mask6_927_403)">
<path fill-rule="evenodd" clip-rule="evenodd" d="M18.4312 15.6146C18.4364 15.625 18.4417 15.6406 18.4364 15.6615C18.4104 15.8594 18.1812 16.0365 18.0094 16.0885C17.9833 16.0937 17.9625 16.0937 17.9469 16.0781C17.9417 16.0781 17.9417 16.0729 17.9364 16.0729C17.9208 16.0469 17.9208 16.0104 17.9469 15.9896C17.9521 15.9896 17.9521 15.9844 17.9573 15.9844C18.1187 15.8958 18.2542 15.776 18.3687 15.6146C18.3687 15.6146 18.3687 15.6094 18.3739 15.6094C18.3896 15.5937 18.4104 15.5937 18.426 15.6094L18.4312 15.6146Z" fill="black"/>
</g>
<mask id="mask7_927_403" style="mask-type:luminance" maskUnits="userSpaceOnUse" x="14" y="15" width="4" height="2">
<path d="M14.4375 15.3281H17.1042V16.5365H14.4375V15.3281Z" fill="white"/>
</mask>
<g mask="url(#mask7_927_403)">
<path fill-rule="evenodd" clip-rule="evenodd" d="M16.0937 15.9434C16.0989 15.9434 16.0989 15.9486 16.0989 15.9486C16.0989 15.9538 16.0989 15.9538 16.0989 15.9538L16.0937 15.9694C16.0781 16.0215 15.9895 16.0423 15.8958 16.0111L15.802 15.9798C15.7083 15.9486 15.651 15.8809 15.6666 15.8288L15.6718 15.8079L15.677 15.8027H15.6822L16.0937 15.9434Z" fill="black"/>
</g>
</svg>
