<svg width="24" height="24" viewBox="0 0 24 24" fill="none" xmlns="http://www.w3.org/2000/svg">
<path fill-rule="evenodd" clip-rule="evenodd" d="M8.2499 2.94593C9.43889 2.45344 10.7132 2.19995 12.0002 2.19995C13.2871 2.19995 14.5615 2.45344 15.7505 2.94593C16.9395 3.43843 18.0198 4.16029 18.9298 5.0703C19.8399 5.98032 20.5617 7.06066 21.0542 8.24965C21.5467 9.43864 21.8002 10.713 21.8002 12C21.8002 13.2869 21.5467 14.5613 21.0542 15.7502C20.5617 16.9392 19.8399 18.0196 18.9298 18.9296C18.0198 19.8396 16.9395 20.5615 15.7505 21.054C14.5615 21.5465 13.2871 21.7999 12.0002 21.7999C10.7132 21.7999 9.43889 21.5465 8.2499 21.054C7.06091 20.5615 5.98056 19.8396 5.07055 18.9296C4.16053 18.0196 3.43867 16.9392 2.94618 15.7502C2.45368 14.5613 2.2002 13.2869 2.2002 12C2.2002 10.713 2.45368 9.43864 2.94618 8.24965C3.43867 7.06066 4.16053 5.98032 5.07055 5.0703C5.98056 4.16029 7.06091 3.43843 8.2499 2.94593ZM12.0002 3.79995C10.9234 3.79995 9.85706 4.01205 8.86219 4.42414C7.86732 4.83623 6.96336 5.44024 6.20192 6.20168C5.44048 6.96312 4.83647 7.86708 4.42438 8.86195C4.01229 9.85682 3.8002 10.9231 3.8002 12C3.8002 13.0768 4.01229 14.1431 4.42438 15.138C4.83647 16.1328 5.44048 17.0368 6.20192 17.7982C6.96336 18.5597 7.86732 19.1637 8.86219 19.5758C9.85706 19.9879 10.9234 20.2 12.0002 20.2C13.077 20.2 14.1433 19.9879 15.1382 19.5758C16.1331 19.1637 17.037 18.5597 17.7985 17.7982C18.5599 17.0368 19.1639 16.1328 19.576 15.138C19.9881 14.1431 20.2002 13.0768 20.2002 12C20.2002 10.9231 19.9881 9.85682 19.576 8.86195C19.1639 7.86708 18.5599 6.96312 17.7985 6.20168C17.037 5.44024 16.1331 4.83623 15.1382 4.42414C14.1433 4.01205 13.077 3.79995 12.0002 3.79995ZM12.0002 6.19995C12.442 6.19995 12.8002 6.55812 12.8002 6.99995V11.5718L15.444 13.3343C15.8116 13.5794 15.9109 14.0761 15.6658 14.4437C15.4208 14.8113 14.9241 14.9107 14.5564 14.6656L11.5564 12.6656C11.3339 12.5172 11.2002 12.2674 11.2002 12V6.99995C11.2002 6.55812 11.5584 6.19995 12.0002 6.19995Z" fill="white"/>
</svg>
