<svg width="87" height="92" viewBox="0 0 87 92" fill="none" xmlns="http://www.w3.org/2000/svg">
<g clip-path="url(#clip0_2_47)">
<path d="M33.456 56.0442V19.2641H29.285V53.1965C30.6197 53.9144 32.008 54.8636 33.456 56.0442Z" fill="url(#paint0_linear_2_47)"/>
<path d="M36.9521 59.2278C37.9025 60.1785 38.7829 61.1248 39.5635 62.0038V19.2641H35.3925V57.7278C35.9049 58.2009 36.4248 58.6994 36.9521 59.2278Z" fill="url(#paint1_linear_2_47)"/>
<path d="M42.3923 65.3829C42.4117 65.356 42.4296 65.3307 42.449 65.3038C43.5409 63.7725 44.6179 62.3576 45.6725 61.0621V19.2641H41.5015V64.2725C41.8501 64.6993 42.151 65.0754 42.3923 65.3829Z" fill="url(#paint2_linear_2_47)"/>
<path d="M50.5913 55.7547C50.9906 55.3875 51.3868 55.0427 51.7801 54.7159V19.2641H47.6091V58.792C48.628 57.6561 49.6231 56.6427 50.5913 55.7532V55.7547Z" fill="url(#paint3_linear_2_47)"/>
<path d="M57.8861 51.1682V19.2641H53.7151V53.2502C55.1437 52.2801 56.5291 51.5876 57.8861 51.1682Z" fill="url(#paint4_linear_2_47)"/>
<path d="M78.8857 0.494249C75.6755 -0.428126 72.8392 -0.0564895 70.4587 1.59871C65.6621 4.93449 64.3944 12.5001 64.0667 16.7119C63.7539 20.7253 63.6243 25.3521 64.7847 31.9878C66.0092 38.9937 68.4433 46.8682 72.2061 55.9756C73.6123 57.28 75.032 58.9158 76.4292 60.9576C77.6522 62.7441 78.6399 64.5277 79.3862 66.0277C79.3013 63.2441 78.6399 60.4054 77.402 57.5487C68.2153 36.3505 67.5629 25.5506 68.2258 17.0373C68.6786 11.212 70.4036 6.72401 72.8377 5.0315C74.1575 4.1136 75.7604 3.94346 77.7357 4.51061C82.0959 5.76433 82.8496 11.5478 82.8571 11.6075L84.9277 11.3628L86.9998 11.1254C86.9596 10.7747 85.9406 2.52258 78.8857 0.494249Z" fill="url(#paint5_linear_2_47)"/>
<path d="M9.27155 4.50897C11.2483 3.94331 12.8497 4.11494 14.1695 5.03434C16.6021 6.72983 18.3211 11.2193 18.768 17.0446C19.422 25.5579 18.7576 36.3578 9.54714 57.5455C8.44927 60.0709 7.80127 62.6007 7.60613 65.0902C8.33308 63.8007 9.28645 62.2365 10.4156 60.6679C11.8755 58.6396 13.3651 56.9679 14.8786 55.6545C18.5744 46.6875 20.9757 38.9204 22.1927 31.9996C23.3591 25.3654 23.2355 20.7371 22.9271 16.7237C22.6039 12.5104 21.3451 4.94478 16.5515 1.60304C14.1725 -0.0536535 11.3377 -0.429768 8.12602 0.491115C1.06957 2.51049 0.0402204 10.7626 0 11.1134L4.1427 11.5999C4.15015 11.5417 4.90987 5.75821 9.27155 4.50897Z" fill="url(#paint6_linear_2_47)"/>
<path d="M78.8082 70.7112C78.555 70.0112 72.4936 53.6293 61.0457 53.6293C61.0099 53.6293 60.9727 53.6293 60.9369 53.6293C55.9794 53.6741 50.2994 58.7472 43.5736 69.1396C38.914 76.338 35.5251 83.4036 35.3105 83.8528C36.7451 84.0871 38.2168 84.2498 39.7229 84.3394C40.928 81.9379 43.6928 76.6305 47.0951 71.3798C55.0037 59.1711 59.4368 57.8218 60.9756 57.8069C60.9995 57.8069 61.0218 57.8069 61.0457 57.8069C68.5296 57.8069 73.4991 68.7306 74.6387 71.5022C73.1609 75.8738 69.7273 79.6588 64.667 82.4842C59.1553 85.5602 52.2761 87.1871 44.7758 87.1871H42.5666C34.8398 87.1871 27.5376 85.3796 22.005 82.0991C16.9104 79.0782 13.5066 74.9082 12.3492 70.2963C12.8944 69.2052 14.1486 66.8351 15.8319 64.5038C18.5312 60.768 21.1917 58.7099 23.3234 58.7099C25.4551 58.7099 28.99 61.1442 32.8452 65.3874C36.0643 68.9306 38.4939 72.5425 38.5178 72.5783L38.6161 72.5112C39.3385 71.2798 40.1087 70.0112 40.9161 68.7366C39.8569 67.2784 38.0887 64.9561 35.9615 62.6113C31.0308 57.1726 26.8955 54.5293 23.3204 54.5293C19.7452 54.5293 16.0286 57.0785 12.4102 62.1068C9.90613 65.5874 8.32115 69.0232 8.25561 69.1679L7.97257 69.7858L8.10664 70.453C10.5914 82.7648 24.7609 91.3631 42.5636 91.3631H44.7728C52.9822 91.3631 60.563 89.5542 66.6944 86.1334C72.9896 82.62 77.1934 77.7335 78.8499 72.0022L79.0391 71.3485L78.8067 70.7082L78.8082 70.7112Z" fill="url(#paint7_linear_2_47)"/>
<path d="M25.108 17.0776H61.9022C62.0572 15.6851 62.3059 14.0911 62.7037 12.4508H24.3066C24.7043 14.0911 24.9531 15.6851 25.108 17.0776Z" fill="url(#paint8_linear_2_47)"/>
</g>
<defs>
<linearGradient id="paint0_linear_2_47" x1="31.3705" y1="22.9671" x2="31.3705" y2="70.5724" gradientUnits="userSpaceOnUse">
<stop stop-color="#F3CC35"/>
<stop offset="1" stop-color="#CB6615"/>
</linearGradient>
<linearGradient id="paint1_linear_2_47" x1="37.478" y1="22.9671" x2="37.478" y2="70.5724" gradientUnits="userSpaceOnUse">
<stop stop-color="#F3CC35"/>
<stop offset="1" stop-color="#CB6615"/>
</linearGradient>
<linearGradient id="paint2_linear_2_47" x1="43.5856" y1="22.9671" x2="43.5856" y2="70.5724" gradientUnits="userSpaceOnUse">
<stop stop-color="#F3CC35"/>
<stop offset="1" stop-color="#CB6615"/>
</linearGradient>
<linearGradient id="paint3_linear_2_47" x1="49.6931" y1="22.9671" x2="49.6931" y2="70.5724" gradientUnits="userSpaceOnUse">
<stop stop-color="#F3CC35"/>
<stop offset="1" stop-color="#CB6615"/>
</linearGradient>
<linearGradient id="paint4_linear_2_47" x1="55.8006" y1="22.9671" x2="55.8006" y2="70.5724" gradientUnits="userSpaceOnUse">
<stop stop-color="#F3CC35"/>
<stop offset="1" stop-color="#CB6615"/>
</linearGradient>
<linearGradient id="paint5_linear_2_47" x1="74.2871" y1="59.4472" x2="75.8139" y2="1.52424" gradientUnits="userSpaceOnUse">
<stop stop-color="#CCCCCC"/>
<stop offset="1" stop-color="#4D4D4D"/>
</linearGradient>
<linearGradient id="paint6_linear_2_47" x1="10.4916" y1="57.7649" x2="12.0199" y2="-0.157976" gradientUnits="userSpaceOnUse">
<stop stop-color="#CCCCCC"/>
<stop offset="1" stop-color="#4D4D4D"/>
</linearGradient>
<linearGradient id="paint7_linear_2_47" x1="43.5051" y1="59.2442" x2="43.5051" y2="99.4869" gradientUnits="userSpaceOnUse">
<stop stop-color="#72B848"/>
<stop offset="1" stop-color="#006837"/>
</linearGradient>
<linearGradient id="paint8_linear_2_47" x1="43.5051" y1="11.3732" x2="43.5051" y2="18.1074" gradientUnits="userSpaceOnUse">
<stop stop-color="#F3CC35"/>
<stop offset="1" stop-color="#CB6615"/>
</linearGradient>
<clipPath id="clip0_2_47">
<rect width="87" height="92.0002" fill="white"/>
</clipPath>
</defs>
</svg>
