<svg width="35" height="8" viewBox="0 0 35 8" fill="none" xmlns="http://www.w3.org/2000/svg">
<mask id="mask0_927_327" style="mask-type:luminance" maskUnits="userSpaceOnUse" x="22" y="0" width="8" height="8">
<path d="M22.666 0H29.3327V7.78125H22.666V0Z" fill="white"/>
</mask>
<g mask="url(#mask0_927_327)">
<path d="M23.9427 6.52604C24.0521 6.64063 24.1875 6.73438 24.3385 6.80208C24.4896 6.86979 24.651 6.90104 24.8229 6.90104C24.9896 6.90104 25.1458 6.86979 25.2969 6.80208C25.4479 6.73438 25.5781 6.64583 25.6927 6.53125C25.8073 6.41667 25.901 6.28125 25.9687 6.13021C26.0365 5.97396 26.0677 5.8125 26.0677 5.63542V1.90625C26.099 1.91667 26.1667 1.9375 26.2708 1.97396C26.3698 2.00521 26.4896 2.04167 26.6198 2.08333C26.7552 2.125 26.8958 2.17188 27.0417 2.21875C27.1875 2.26563 27.3281 2.30729 27.4583 2.34375C27.5833 2.38542 27.6927 2.41667 27.7812 2.44271C27.8698 2.46875 27.9219 2.47917 27.9375 2.47917C27.9948 2.47917 28.0417 2.45833 28.0833 2.41667C28.1198 2.375 28.1406 2.32292 28.1406 2.26563V1.34375C28.1406 1.25 28.125 1.15625 28.099 1.06771C28.0677 0.979167 28.0313 0.901043 27.9792 0.828126C27.9271 0.755208 27.8646 0.69271 27.7917 0.640626C27.7187 0.588542 27.6354 0.546875 27.5469 0.520833C27.5208 0.510417 27.4583 0.489584 27.3698 0.463542C27.276 0.432292 27.1719 0.395834 27.0521 0.359376C26.9271 0.31771 26.8021 0.281251 26.6667 0.239585C26.5313 0.197918 26.4115 0.156251 26.2969 0.119792C26.1823 0.0833336 26.0833 0.0572926 26 0.0312513C25.9219 0.0104179 25.875 0 25.8594 0C25.8021 0 25.7552 0.0208333 25.7135 0.0625C25.6719 0.109376 25.651 0.156251 25.651 0.213542V4.64583C25.5313 4.53125 25.401 4.44792 25.2552 4.39583C25.1146 4.33854 24.9583 4.3125 24.7969 4.3125C24.6302 4.3125 24.4687 4.34896 24.3229 4.41667C24.1771 4.48958 24.0469 4.58333 23.9375 4.70313C23.8229 4.82292 23.7396 4.95833 23.6719 5.11458C23.6094 5.27083 23.5781 5.4375 23.5781 5.60938C23.5781 5.78646 23.6094 5.95833 23.6771 6.11458C23.7396 6.27083 23.8281 6.40625 23.9427 6.52604ZM26.0677 0.505208L27.4323 0.932292C27.5208 0.958334 27.5937 1.01042 27.6458 1.08854C27.6979 1.16667 27.7292 1.25 27.7292 1.34375V1.97396L26.0677 1.45833V0.505208ZM24.0625 5.27604C24.1042 5.16667 24.1615 5.07813 24.2396 5C24.3125 4.92188 24.401 4.85938 24.5 4.8125C24.599 4.76563 24.7083 4.74479 24.8229 4.74479C24.9323 4.74479 25.0365 4.76563 25.1406 4.8125C25.2396 4.85938 25.3281 4.91667 25.401 4.99479C25.4792 5.07292 25.5417 5.16146 25.5833 5.26042C25.6302 5.36458 25.651 5.47396 25.651 5.58854V5.60938C25.651 5.72917 25.6302 5.83854 25.5885 5.94271C25.5417 6.04688 25.4844 6.14062 25.4062 6.21875C25.3333 6.29167 25.2448 6.35417 25.1458 6.40104C25.0417 6.44792 24.9375 6.46875 24.8229 6.46875C24.7083 6.46875 24.599 6.44792 24.5 6.40104C24.401 6.35417 24.3125 6.29167 24.2396 6.21875C24.1667 6.14062 24.1042 6.04688 24.0625 5.94271C24.0156 5.83854 23.9948 5.72917 23.9948 5.60938C23.9948 5.48958 24.0156 5.38021 24.0625 5.27604Z" fill="black"/>
</g>
<mask id="mask1_927_327" style="mask-type:luminance" maskUnits="userSpaceOnUse" x="0" y="0" width="35" height="8">
<path d="M0 0H34.0417V7.78125H0V0Z" fill="white"/>
</mask>
<g mask="url(#mask1_927_327)">
<path d="M33.9323 0.203124C33.875 0.140624 33.8021 0.109375 33.7135 0.109375C33.6771 0.109375 33.6406 0.114583 33.6042 0.130207L30.4792 1.34375C30.4167 1.36979 30.3698 1.40625 30.3333 1.46354C30.2917 1.52083 30.276 1.58333 30.276 1.65104L30.2865 5.02083C30.1927 4.94792 30.0937 4.89583 29.9844 4.85938C29.875 4.82292 29.7656 4.80729 29.6458 4.80729C29.5052 4.80729 29.375 4.83854 29.25 4.89583C29.1302 4.95312 29.0208 5.03125 28.9271 5.13021C28.8385 5.22916 28.7656 5.34375 28.7135 5.47396C28.6562 5.60417 28.6302 5.73958 28.6302 5.88542C28.6302 6.03646 28.6615 6.17708 28.7135 6.30729C28.7135 6.3125 28.7187 6.32292 28.724 6.32812C26.3229 7.79167 22.8906 7.69792 18.5156 6.04687C10.0885 2.85416 0.0989587 7.10417 0 7.14583L0.140626 7.5C0.239584 7.45312 10.1042 3.26562 18.3906 6.40625C20.7552 7.29687 22.8542 7.74479 24.6771 7.74479C26.3229 7.74479 27.7448 7.375 28.9323 6.64583C28.9323 6.64583 28.9323 6.64583 28.9323 6.65104C29.026 6.74479 29.1406 6.82292 29.2656 6.88021C29.3906 6.9375 29.526 6.96354 29.6667 6.96354C29.8073 6.96354 29.9375 6.9375 30.0625 6.88021C30.1875 6.82812 30.2969 6.75 30.3958 6.65625C30.4896 6.5625 30.5677 6.44792 30.6198 6.31771C30.6771 6.19271 30.7031 6.05729 30.7031 5.91146V3.22917L33.6094 2.09896V4.59375C33.5156 4.51562 33.4167 4.46354 33.3073 4.42708C33.1927 4.39583 33.0833 4.375 32.9635 4.375C32.8229 4.375 32.6927 4.40625 32.5677 4.46354C32.4479 4.52083 32.3385 4.59896 32.2448 4.69792C32.1562 4.79687 32.0833 4.91146 32.0312 5.04167C31.9792 5.17187 31.9479 5.3125 31.9479 5.45312C31.9479 5.60417 31.9792 5.74479 32.0312 5.875C32.0833 6.00521 32.1615 6.11979 32.2552 6.21875C32.349 6.31771 32.4583 6.39062 32.5833 6.44792C32.7083 6.50521 32.8437 6.53125 32.9896 6.53125C33.125 6.53125 33.2552 6.50521 33.3802 6.44792C33.5104 6.39583 33.6198 6.31771 33.7135 6.22396C33.8073 6.13021 33.8854 6.01562 33.9427 5.89062C33.9948 5.76042 34.026 5.625 34.026 5.47917V0.432291C34.026 0.34375 33.9948 0.265624 33.9323 0.203124ZM30.2448 6.13542C30.2083 6.21354 30.1667 6.28125 30.1094 6.33854C30.0521 6.40104 29.9896 6.44792 29.9115 6.47917C29.8385 6.51562 29.7552 6.53125 29.6667 6.53125C29.5833 6.53125 29.5052 6.51562 29.4271 6.48438C29.3542 6.44792 29.2865 6.40104 29.2292 6.34375C29.1719 6.28125 29.1302 6.21354 29.0937 6.13542C29.0625 6.05729 29.0469 5.97396 29.0469 5.88542C29.0469 5.79687 29.0625 5.71354 29.0937 5.63542C29.125 5.55729 29.1719 5.48958 29.2292 5.42708C29.2865 5.36979 29.3542 5.32292 29.4271 5.29167C29.5052 5.25521 29.5833 5.23958 29.6667 5.23958C29.7552 5.23958 29.8333 5.25521 29.9062 5.29167C29.9844 5.32292 30.0521 5.36979 30.1094 5.42708C30.1667 5.48437 30.2083 5.55208 30.2448 5.63542C30.276 5.71354 30.2917 5.79687 30.2917 5.88021C30.2917 5.96875 30.276 6.05208 30.2448 6.13542ZM33.5625 5.70312C33.5312 5.78125 33.4844 5.84896 33.4271 5.91146C33.3698 5.96875 33.3021 6.01562 33.2292 6.05208C33.151 6.08333 33.0729 6.09896 32.9896 6.09896C32.901 6.09896 32.8229 6.08333 32.75 6.05208C32.6719 6.01562 32.6042 5.96875 32.5469 5.91146C32.4896 5.84896 32.4479 5.78125 32.4115 5.70312C32.3802 5.625 32.3646 5.54167 32.3646 5.45312C32.3646 5.36458 32.3802 5.28125 32.4115 5.20312C32.4479 5.125 32.4896 5.05729 32.5469 5C32.6042 4.9375 32.6719 4.89062 32.75 4.85938C32.8229 4.82292 32.901 4.80729 32.9896 4.80729C33.0729 4.80729 33.151 4.82292 33.2292 4.85938C33.3021 4.89062 33.3698 4.9375 33.4271 5C33.4844 5.05729 33.5312 5.125 33.5625 5.20312C33.5937 5.28125 33.6094 5.36458 33.6094 5.45312C33.6094 5.54167 33.5937 5.625 33.5625 5.70312ZM33.6094 1.64062L30.6927 2.77083V1.71875L33.6094 0.58854V1.64062Z" fill="black"/>
</g>
</svg>
