<svg width="27" height="28" viewBox="0 0 27 28" fill="none" xmlns="http://www.w3.org/2000/svg">
<path fill-rule="evenodd" clip-rule="evenodd" d="M15.3073 12.2389C16.5208 11.4264 18.3125 10.2389 21.4271 8.17124C21.5052 8.11394 21.526 8.00978 21.474 7.93686C21.4167 7.85874 21.3125 7.8379 21.2344 7.88999C18.1146 10.0775 16.349 11.3171 15.1562 12.1504C15.2031 12.1817 15.2552 12.2077 15.3073 12.2389Z" fill="black"/>
<path fill-rule="evenodd" clip-rule="evenodd" d="M16.9779 6.03736C17.4518 5.08944 17.9883 4.01131 18.5977 2.77173C18.6497 2.66756 18.6081 2.54777 18.5039 2.49569C18.3997 2.44881 18.2747 2.49048 18.2227 2.59465C17.7227 3.67277 17.2747 4.63111 16.8789 5.48527C16.8789 5.5009 16.8841 5.51131 16.8841 5.52173C16.931 5.6936 16.9622 5.87069 16.9779 6.03736Z" fill="black"/>
<path fill-rule="evenodd" clip-rule="evenodd" d="M14.6348 11.9314C14.6504 11.9366 14.666 11.9418 14.6816 11.947C15.7702 10.7179 17.3952 8.87412 20.5306 5.32204C20.5983 5.24391 20.5879 5.12412 20.5098 5.05641C20.4264 4.9887 20.3066 4.99391 20.2389 5.07724C17.2598 8.62412 15.6868 10.5043 14.6348 11.7595V11.9314Z" fill="black"/>
<mask id="mask0_927_325" style="mask-type:luminance" maskUnits="userSpaceOnUse" x="0" y="13" width="10" height="2">
<path d="M0 13.5527H9.22917V14.8861H0V13.5527Z" fill="white"/>
</mask>
<g mask="url(#mask0_927_325)">
<path fill-rule="evenodd" clip-rule="evenodd" d="M1.01581 14.7773C4.62518 14.4544 7.02622 14.2357 8.75539 14.0794C8.7606 14.0065 8.76581 13.9336 8.77622 13.8555C7.04185 13.9701 4.62518 14.1263 0.97935 14.3607C0.869975 14.3711 0.781433 14.4701 0.79185 14.5846C0.797058 14.6992 0.901224 14.7826 1.01581 14.7773Z" fill="black"/>
</g>
<path fill-rule="evenodd" clip-rule="evenodd" d="M14.625 10.7865L14.7344 10.5625C14.6979 10.599 14.6615 10.6302 14.625 10.6615V10.7865Z" fill="black"/>
<path fill-rule="evenodd" clip-rule="evenodd" d="M2.17086 11.7974C5.30628 12.3391 7.42607 12.7036 8.97295 12.9745C8.99899 12.9068 9.01982 12.8391 9.04586 12.7766C7.5042 12.4693 5.37919 12.0474 2.24378 11.4276C2.13961 11.4068 2.04065 11.4745 2.01982 11.5786C2.0042 11.6776 2.0719 11.7766 2.17086 11.7974Z" fill="black"/>
<path fill-rule="evenodd" clip-rule="evenodd" d="M4.04075 9.30643C3.99908 9.38976 4.03554 9.48872 4.11887 9.53038C6.51471 10.6346 8.19179 11.4106 9.44179 11.9835C9.45742 11.9575 9.47304 11.9314 9.48866 11.9054C9.50429 11.8793 9.52512 11.8481 9.54075 11.8168C8.31158 11.2127 6.64492 10.395 4.26471 9.22309C4.18137 9.18663 4.07721 9.22309 4.04075 9.30643Z" fill="black"/>
<path fill-rule="evenodd" clip-rule="evenodd" d="M12.8701 9.01005C12.7867 7.71838 12.6774 6.04651 12.5263 3.7913C12.5211 3.69755 12.4378 3.62984 12.344 3.63505C12.2503 3.64546 12.1826 3.72359 12.1878 3.81734C12.4013 6.14025 12.5524 7.84859 12.6722 9.15067C12.7399 9.1038 12.8024 9.05692 12.8701 9.01005Z" fill="black"/>
<mask id="mask1_927_325" style="mask-type:luminance" maskUnits="userSpaceOnUse" x="14" y="0" width="2" height="5">
<path d="M14.5625 0H15.8958V4.21875H14.5625V0Z" fill="white"/>
</mask>
<g mask="url(#mask1_927_325)">
<path fill-rule="evenodd" clip-rule="evenodd" d="M15.89 0.291221C15.916 0.166221 15.8327 0.0412211 15.7077 0.0203864C15.5775 -0.00565492 15.4577 0.0776783 15.4368 0.207888C15.1816 1.66101 14.9577 2.93705 14.7598 4.06205C14.8848 4.01518 15.0202 3.98914 15.1556 3.97872C15.3743 2.89018 15.6139 1.67143 15.89 0.291221Z" fill="black"/>
</g>
<path fill-rule="evenodd" clip-rule="evenodd" d="M10.8075 10.4527C10.8596 10.4058 10.9169 10.3641 10.9742 10.3225C9.995 8.85894 8.60438 6.78602 6.41688 3.53081C6.35438 3.43706 6.22417 3.41102 6.13042 3.47352C6.03667 3.54123 6.01063 3.67144 6.07313 3.76519C8.34396 6.97352 9.79188 9.01519 10.8075 10.4527Z" fill="black"/>
<path fill-rule="evenodd" clip-rule="evenodd" d="M10.0471 11.1667C10.0992 11.1094 10.1513 11.0521 10.2034 11C8.69818 9.68232 6.5211 7.78128 2.91693 4.63024C2.81797 4.54691 2.67214 4.55732 2.5836 4.65628C2.50026 4.75524 2.51589 4.90107 2.60964 4.98441C6.28672 8.0417 8.51068 9.88545 10.0471 11.1667Z" fill="black"/>
<mask id="mask2_927_325" style="mask-type:luminance" maskUnits="userSpaceOnUse" x="0" y="14" width="10" height="5">
<path d="M0 14.8848H9.22917V18.8848H0V14.8848Z" fill="white"/>
</mask>
<g mask="url(#mask2_927_325)">
<path fill-rule="evenodd" clip-rule="evenodd" d="M8.82345 15.0195C6.95366 15.6497 4.30782 16.5456 0.182825 17.9362C0.0630328 17.9779 0.000533107 18.1133 0.0421998 18.2331C0.0838664 18.3529 0.219284 18.4154 0.339075 18.3737C4.41199 16.8893 7.02657 15.931 8.88074 15.2539C8.85991 15.1758 8.83907 15.0977 8.82345 15.0195Z" fill="black"/>
</g>
<path fill-rule="evenodd" clip-rule="evenodd" d="M11.6659 9.82871C11.7024 9.80267 11.7441 9.77663 11.7805 9.75059L11.843 9.70892C11.3378 8.22454 10.6399 6.18287 9.60865 3.15163C9.5722 3.05267 9.46803 3.00059 9.36907 3.03704C9.27011 3.0735 9.21803 3.17767 9.24928 3.27663C10.3691 6.31308 11.1191 8.34954 11.6659 9.82871Z" fill="black"/>
<path fill-rule="evenodd" clip-rule="evenodd" d="M24.1139 15.4382C20.5827 14.8288 18.3327 14.4382 16.7441 14.1621C16.7598 14.2298 16.7754 14.3027 16.7858 14.3704C18.3639 14.6829 20.5827 15.1257 24.0462 15.8079C24.1504 15.8288 24.2493 15.7611 24.265 15.6569C24.2858 15.5579 24.2181 15.459 24.1139 15.4382Z" fill="black"/>
<path fill-rule="evenodd" clip-rule="evenodd" d="M22.25 17.9271C22.2917 17.8437 22.2552 17.7448 22.1719 17.7031C19.7552 16.5885 18.0677 15.8125 16.8177 15.2344C16.8125 15.3021 16.8073 15.3698 16.7969 15.4375C18.026 16.0417 19.6719 16.8542 22.026 18.0104C22.1094 18.0469 22.2083 18.0104 22.25 17.9271Z" fill="black"/>
<path fill-rule="evenodd" clip-rule="evenodd" d="M16.556 16.334C16.5247 16.4121 16.4935 16.485 16.457 16.5632C17.9466 17.86 20.056 19.7038 23.3737 22.6048C23.4727 22.6882 23.6185 22.6777 23.7018 22.5788C23.7852 22.4798 23.7747 22.334 23.6758 22.2507C20.2487 19.4017 18.0768 17.5996 16.556 16.334Z" fill="black"/>
<path fill-rule="evenodd" clip-rule="evenodd" d="M15.9154 17.3965C15.8633 17.459 15.8112 17.5163 15.7539 17.5684C16.7018 18.985 17.9935 20.9069 19.8685 23.7038C19.9362 23.7975 20.0664 23.8236 20.1602 23.7611C20.2539 23.6934 20.2799 23.5684 20.2122 23.4694C18.2487 20.6934 16.8997 18.7923 15.9154 17.3965Z" fill="black"/>
<mask id="mask3_927_325" style="mask-type:luminance" maskUnits="userSpaceOnUse" x="15" y="8" width="12" height="5">
<path d="M15.7441 8.71875H26.2598V12.8021H15.7441V8.71875Z" fill="white"/>
</mask>
<g mask="url(#mask3_927_325)">
<path fill-rule="evenodd" clip-rule="evenodd" d="M26.25 8.99923C26.2031 8.87944 26.0729 8.81694 25.9531 8.85861C20.5156 10.843 17.6771 11.8794 15.7812 12.5721C15.8385 12.619 15.8906 12.6711 15.9479 12.7232C17.8594 12.0774 20.7188 11.1138 26.1042 9.29611C26.2292 9.25444 26.2917 9.11902 26.25 8.99923Z" fill="black"/>
</g>
<mask id="mask4_927_325" style="mask-type:luminance" maskUnits="userSpaceOnUse" x="15" y="12" width="12" height="2">
<path d="M15.8945 12.2188H26.2695V13.5521H15.8945V12.2188Z" fill="white"/>
</mask>
<g mask="url(#mask4_927_325)">
<path fill-rule="evenodd" clip-rule="evenodd" d="M25.2741 12.4638C20.7741 12.8648 18.1595 13.0992 16.373 13.2606C16.4095 13.3179 16.446 13.3804 16.4772 13.4481C18.2637 13.3284 20.8783 13.1617 25.3053 12.8752C25.4199 12.8648 25.5085 12.7659 25.498 12.6513C25.4876 12.5367 25.3887 12.4534 25.2741 12.4638Z" fill="black"/>
</g>
<path fill-rule="evenodd" clip-rule="evenodd" d="M7.68709 24.4635C7.64022 24.5677 7.68189 24.6875 7.78605 24.7396C7.89022 24.7865 8.01522 24.7448 8.06209 24.6406C8.88501 22.8802 9.55689 21.4323 10.1142 20.2292C10.0361 20.1719 9.95793 20.1042 9.88501 20.0312C9.28605 21.2344 8.5673 22.6875 7.68709 24.4635Z" fill="black"/>
<path fill-rule="evenodd" clip-rule="evenodd" d="M9.25549 16.1465C8.17216 16.8652 6.7607 17.8027 4.85966 19.0684C4.78674 19.1204 4.76591 19.2246 4.81799 19.2975C4.87008 19.3757 4.97424 19.3965 5.05237 19.3444C6.91695 18.0371 8.29716 17.0684 9.36487 16.3236C9.32841 16.2663 9.29195 16.209 9.25549 16.1465Z" fill="black"/>
<path fill-rule="evenodd" clip-rule="evenodd" d="M9.22328 18.3639C9.31182 18.0358 9.53578 17.7962 9.83266 17.6452L10.1764 17.2337C10.1191 17.1868 10.067 17.14 10.0097 17.0879C9.00453 18.2337 7.66078 19.7598 5.75974 21.9108C5.69203 21.9889 5.70245 22.1087 5.78057 22.1764C5.8587 22.2441 5.97849 22.2389 6.0462 22.1556C7.34828 20.6087 8.37953 19.3796 9.21807 18.3796C9.21807 18.3743 9.22328 18.3691 9.22328 18.3639Z" fill="black"/>
<mask id="mask5_927_325" style="mask-type:luminance" maskUnits="userSpaceOnUse" x="9" y="20" width="5" height="8">
<path d="M9.22852 20.2188H13.2285V27.2448H9.22852V20.2188Z" fill="white"/>
</mask>
<g mask="url(#mask5_927_325)">
<path fill-rule="evenodd" clip-rule="evenodd" d="M11.6296 20.7754C11.3066 22.3848 10.9056 24.39 10.3952 26.9421C10.3691 27.0671 10.4577 27.1921 10.5827 27.2129C10.7077 27.2389 10.8327 27.1556 10.8535 27.0306C11.3066 24.4316 11.6608 22.4056 11.9473 20.7754C11.8379 20.7806 11.7337 20.7806 11.6296 20.7754Z" fill="black"/>
</g>
<path fill-rule="evenodd" clip-rule="evenodd" d="M13.5469 20.1673C13.6094 21.0996 13.6771 22.1829 13.7604 23.4434C13.7708 23.5371 13.849 23.6048 13.9427 23.5996C14.0365 23.5892 14.1042 23.5111 14.099 23.4173C13.9792 22.0631 13.875 20.9225 13.7865 19.9434C13.7135 20.0267 13.6302 20.0996 13.5469 20.1673Z" fill="black"/>
<path fill-rule="evenodd" clip-rule="evenodd" d="M14.9056 18.1777C14.8379 18.209 14.7702 18.2402 14.6973 18.2663C15.1764 19.6777 15.8066 21.5267 16.6764 24.084C16.7129 24.1829 16.8223 24.235 16.9212 24.1986C17.0202 24.1673 17.0723 24.0579 17.0358 23.959C16.0983 21.4173 15.4212 19.5788 14.9056 18.1777Z" fill="black"/>
<path fill-rule="evenodd" clip-rule="evenodd" d="M14.6354 5.4788C15.1875 4.84338 15.7552 5.0413 15.9063 5.81213C15.9688 6.12463 15.9063 6.4788 15.7657 6.83296C15.4479 7.61942 14.6094 8.65067 13.8282 9.1038C13.8125 8.00484 13.9115 6.31734 14.6354 5.4788ZM12.2344 13.3538C12.6198 12.984 13.1094 12.7705 13.5573 12.7861C13.5313 13.7965 13.5313 16.4892 13.4063 17.3173C11.7969 17.1871 10.5573 16.5621 10.3854 15.0309C10.3177 14.4475 10.4479 13.8017 10.8229 13.1871C11.5104 12.0621 12.5938 11.4059 13.5313 10.6663C13.5625 11.1663 13.5625 11.9371 13.5782 12.3642C13.2032 12.4319 12.4636 12.5673 11.8854 13.1403C11.0677 13.9528 10.9323 15.9319 11.9375 16.4996C11.2604 15.4215 11.2969 14.2653 12.2344 13.3538ZM13.9792 17.2392C13.974 15.7861 13.9792 14.2548 13.974 12.7965C16.2657 13.4215 15.8125 16.5725 13.9792 17.2392ZM13.9844 12.4215C13.9844 11.7444 13.974 11.0517 13.974 10.3746C15.1771 9.31213 16.7813 7.81734 16.2552 5.67671C15.9948 4.62463 15.2084 4.24442 14.4011 5.06734C13.4792 6.02046 13.5104 8.00484 13.5469 9.30171C12.3594 10.2705 10.9532 10.7965 10.0365 12.2496C8.30732 14.9996 10.3177 17.5673 13.3698 17.8121C13.3959 19.1611 12.0052 20.458 10.724 19.3382C10.5938 19.1507 10.7552 19.1819 10.9011 18.984C11.1927 18.6038 10.6094 17.984 10.1459 18.2132C9.44274 18.5621 10.0782 19.4267 10.5886 19.7705C11.875 20.635 13.9479 19.9423 13.9219 17.7861C16.3282 17.5621 17.4636 13.1663 13.9844 12.4215Z" fill="black"/>
</svg>
